HIERARCHY
ROOT hip
{
  OFFSET 0 0 0
  CHANNELS 6 Xposition Yposition Zposition Zrotation Yrotation Xrotation
  JOINT abdomen
  {
    OFFSET 0 20.6881 -0.73152
    CHANNELS 3 Zrotation Xrotation Yrotation
    JOINT chest
    {
      OFFSET 0 11.7043 -0.48768
      CHANNELS 3 Zrotation Xrotation Yrotation
      JOINT neck
      {
        OFFSET 0 22.1894 -2.19456
        CHANNELS 3 Zrotation Xrotation Yrotation
        JOINT head
        {
          OFFSET -0.24384 7.07133 1.2192
          CHANNELS 3 Zrotation Xrotation Yrotation
          JOINT leftEye
          {
            OFFSET 4.14528 8.04674 8.04672
            CHANNELS 3 Zrotation Xrotation Yrotation
            End Site
            {
              OFFSET 1 0 0
            }
          }
          JOINT rightEye
          {
            OFFSET -3.6576 8.04674 8.04672
            CHANNELS 3 Zrotation Xrotation Yrotation
            End Site
            {
              OFFSET 1 0 0
            }
          }
        }
      }
      JOINT rCollar
      {
        OFFSET -2.68224 19.2634 -4.8768
        CHANNELS 3 Zrotation Xrotation Yrotation
        JOINT rShldr
        {
          OFFSET -8.77824 -1.95073 1.46304
          CHANNELS 3 Zrotation Xrotation Yrotation
          JOINT rForeArm
          {
            OFFSET -28.1742 -1.7115 0.48768
            CHANNELS 3 Zrotation Xrotation Yrotation
            JOINT rHand
            {
              OFFSET -22.5879 0.773209 7.07136
              CHANNELS 3 Zrotation Xrotation Yrotation
              JOINT rThumb1
              {
                OFFSET -1.2192 -0.487915 3.41376
                CHANNELS 3 Zrotation Xrotation Yrotation
                JOINT rThumb2
                {
                  OFFSET -3.37035 -0.52449 3.41376
                  CHANNELS 3 Zrotation Xrotation Yrotation
                  End Site
                  {
                    OFFSET -1.78271 -1.18214 1.43049
                  }
                }
              }
              JOINT rIndex1
              {
                OFFSET -7.75947 0.938293 5.60832
                CHANNELS 3 Zrotation Xrotation Yrotation
                JOINT rIndex2
                {
                  OFFSET -2.54057 -0.884171 1.56538
                  CHANNELS 3 Zrotation Xrotation Yrotation
                  End Site
                  {
                    OFFSET -1.62519 -0.234802 1.16502
                  }
                }
              }
              JOINT rMid1
              {
                OFFSET -8.24714 1.18213 3.41376
                CHANNELS 3 Zrotation Xrotation Yrotation
                JOINT rMid2
                {
                  OFFSET -3.10165 -0.590103 1.0647
                  CHANNELS 3 Zrotation Xrotation Yrotation
                  End Site
                  {
                    OFFSET -2.48547 -0.328903 0.83742
                  }
                }
              }
              JOINT rRing1
              {
                OFFSET -8.82822 0.546677 1.51678
                CHANNELS 3 Zrotation Xrotation Yrotation
                JOINT rRing2
                {
                  OFFSET -2.60934 -0.819778 -0.0198488
                  CHANNELS 3 Zrotation Xrotation Yrotation
                  End Site
                  {
                    OFFSET -2.33842 -0.294052 0.168128
                  }
                }
              }
              JOINT rPinky1
              {
                OFFSET -8.27202 -0.0477905 -0.4584
                CHANNELS 3 Zrotation Xrotation Yrotation
                JOINT rPinky2
                {
                  OFFSET -1.82734 -0.647385 -0.700984
                  CHANNELS 3 Zrotation Xrotation Yrotation
                  End Site
                  {
                    OFFSET -1.69225 -0.51767 -0.607171
                  }
                }
              }
            }
          }
        }
      }
      JOINT lCollar
      {
        OFFSET 2.68224 19.2634 -4.8768
        CHANNELS 3 Zrotation Xrotation Yrotation
        JOINT lShldr
        {
          OFFSET 8.77824 -1.95073 1.46304
          CHANNELS 3 Zrotation Xrotation Yrotation
          JOINT lForeArm
          {
            OFFSET 28.1742 -1.7115 0.48768
            CHANNELS 3 Zrotation Xrotation Yrotation
            JOINT lHand
            {
              OFFSET 22.5879 0.773209 7.07136
              CHANNELS 3 Zrotation Xrotation Yrotation
              JOINT lThumb1
              {
                OFFSET 1.2192 -0.487915 3.41376
                CHANNELS 3 Zrotation Xrotation Yrotation
                JOINT lThumb2
                {
                  OFFSET 3.37035 -0.52449 3.41376
                  CHANNELS 3 Zrotation Xrotation Yrotation
                  End Site
                  {
                    OFFSET 1.78271 -1.18214 1.43049
                  }
                }
              }
              JOINT lIndex1
              {
                OFFSET 7.75947 0.938293 5.60832
                CHANNELS 3 Zrotation Xrotation Yrotation
                JOINT lIndex2
                {
                  OFFSET 2.54057 -0.884171 1.56538
                  CHANNELS 3 Zrotation Xrotation Yrotation
                  End Site
                  {
                    OFFSET 1.62519 -0.234802 1.16502
                  }
                }
              }
              JOINT lMid1
              {
                OFFSET 8.24714 1.18213 3.41376
                CHANNELS 3 Zrotation Xrotation Yrotation
                JOINT lMid2
                {
                  OFFSET 3.10165 -0.590103 1.0647
                  CHANNELS 3 Zrotation Xrotation Yrotation
                  End Site
                  {
                    OFFSET 2.48547 -0.328903 0.83742
                  }
                }
              }
              JOINT lRing1
              {
                OFFSET 8.82822 0.546677 1.51678
                CHANNELS 3 Zrotation Xrotation Yrotation
                JOINT lRing2
                {
                  OFFSET 2.60934 -0.819778 -0.0198488
                  CHANNELS 3 Zrotation Xrotation Yrotation
                  End Site
                  {
                    OFFSET 2.33842 -0.294052 0.168128
                  }
                }
              }
              JOINT lPinky1
              {
                OFFSET 8.27202 -0.0477905 -0.4584
                CHANNELS 3 Zrotation Xrotation Yrotation
                JOINT lPinky2
                {
                  OFFSET 1.82734 -0.647385 -0.700984
                  CHANNELS 3 Zrotation Xrotation Yrotation
                  End Site
                  {
                    OFFSET 1.69225 -0.51767 -0.607171
                  }
                }
              }
            }
          }
        }
      }
    }
  }
  JOINT rButtock
  {
    OFFSET -8.77824 4.35084 1.2192
    CHANNELS 3 Zrotation Xrotation Yrotation
    JOINT rThigh
    {
      OFFSET 0 -1.70687 -2.19456
      CHANNELS 3 Zrotation Xrotation Yrotation
      JOINT rShin
      {
        OFFSET 0 -36.8199 0.73152
        CHANNELS 3 Zrotation Xrotation Yrotation
        JOINT rFoot
        {
          OFFSET 0.73152 -45.1104 -5.12064
          CHANNELS 3 Zrotation Xrotation Yrotation
          End Site
          {
            OFFSET -1.1221 -3.69964 12.103
          }
        }
      }
    }
  }
  JOINT lButtock
  {
    OFFSET 8.77824 4.35084 1.2192
    CHANNELS 3 Zrotation Xrotation Yrotation
    JOINT lThigh
    {
      OFFSET 0 -1.70687 -2.19456
      CHANNELS 3 Zrotation Xrotation Yrotation
      JOINT lShin
      {
        OFFSET 0 -36.8199 0.73152
        CHANNELS 3 Zrotation Xrotation Yrotation
        JOINT lFoot
        {
          OFFSET -0.73152 -45.1104 -5.12064
          CHANNELS 3 Zrotation Xrotation Yrotation
          End Site
          {
            OFFSET 1.1221 -3.69964 12.103
          }
        }
      }
    }
  }
}
MOTION
Frames:	4
Frame Time:	0.03333
-18.2006 56.6788 231.76299999999998 8.685900688171387 14.511600494384766 7.254799842834473 -15.345000267028809 11.352499008178711 -10.280699729919434 7.345279216766357 -8.847521781921387 -2.6552298069000244 -7.718889236450195 18.832101821899414 -11.125798225402832 15.578997611999512 -27.833303451538086 -18.478797912597656 -0.0 0.0 -0.0 -0.0 0.0 -0.0 1.5439399433415935e-13 -2.1945898603156072e-13 -3.6377598524629795e-14 60.864402770996094 29.45419692993164 1.823758602142334 -14.606100082397461 -7.4540815353393555 26.781700134277344 -0.18529298901557922 12.173998832702637 1.7374299764633179 -3.6030597949654464e-10 -3.8571501548290144e-10 7.585239658602916e-10 -6.11800998751022e-10 -6.803940189037405e-10 1.3164700440881916e-09 -3.603049802958225e-10 -3.857129893258815e-10 7.585109762509035e-10 7.730909824371338 5.474879741668701 0.4173140823841095 -3.603089770987111e-10 -3.8571398852660366e-10 7.585209682581251e-10 2.9055399894714355 0.9651829600334167 0.10290199518203735 -3.6029798589076734e-10 -3.8571201788073495e-10 7.585270189736093e-10 10.27859878540039 0.73180091381073 0.025912316516041756 -3.603070064528424e-10 -3.8570899252299284e-10 7.585340133786644e-10 2.221669912338257 -0.733487069606781 -0.208919957280159 1.5422999520304376e-13 -2.1945801024960548e-13 -3.6775195790070964e-14 -69.97869873046875 33.59739303588867 -12.107898712158203 13.836400032043457 -6.823299407958984 -25.22570037841797 0.3691070079803467 17.02239990234375 -2.4660696983337402 4.989400004262734e-10 -1.1413199274556973e-09 -1.6264799507226257e-09 8.401939699531624e-10 -2.000769994126017e-09 -2.8173599009306827e-09 4.989320068204961e-10 -1.1413199274556973e-09 -1.6264799507226257e-09 -7.730909824371338 5.474879741668701 -0.4173140823841095 4.989429980284399e-10 -1.1413100464707782e-09 -1.6264799507226257e-09 -2.9055399894714355 0.9651829600334167 -0.10290199518203735 4.989299529079005e-10 -1.1413100464707782e-09 -1.6264899427298474e-09 -10.27859878540039 0.73180091381073 -0.025912316516041756 4.989449964298842e-10 -1.1413100464707782e-09 -1.6264899427298474e-09 -2.221669912338257 -0.733487069606781 0.208919957280159 -2.0321699480147914e-16 0.0 -3.8825099822884138e-19 -59.08080291748047 -62.47770690917969 -50.28679656982422 -2.1989200115203857 71.25981140136719 2.817009687423706 0.1946999877691269 0.2788790166378021 6.24567985534668 2.0321699480147914e-16 0.0 3.8825099822884138e-19 5.598649501800537 12.212199211120605 5.865940093994141 -0.15102700889110565 31.699199676513672 -2.494990110397339 14.315499305725098 -21.94300079345703 35.02510070800781
-18.258899999999997 56.691599999999994 231.54199999999997 8.725600242614746 14.57960033416748 7.1337995529174805 -15.068900108337402 11.069100379943848 -9.611759185791016 6.967120170593262 -9.140680313110352 -2.4611001014709473 -7.869819641113281 20.6747989654541 -11.302000999450684 16.151500701904297 -28.90660285949707 -18.742000579833984 -0.0 0.0 -0.0 -0.0 0.0 -0.0 3.028629864260113e-13 -1.111210055177933e-13 -2.004989869876933e-13 61.580196380615234 28.614398956298828 0.20221984386444092 -14.525701522827148 -7.386099815368652 26.618896484375 -0.17242498695850372 11.753899574279785 1.6756900548934937 -3.479249943705298e-10 1.0625299529110066e-09 -1.1552099277167827e-09 -6.095479676559989e-10 1.840019914212121e-09 -1.9931600814260264e-09 -3.4792402292538327e-10 1.0625299529110066e-09 -1.1552200307463067e-09 7.730909824371338 5.474879741668701 0.4173140823841095 -3.4792999037414063e-10 1.0625299529110066e-09 -1.1552099277167827e-09 2.9055399894714355 0.9651829600334167 0.10290199518203735 -3.479169730091769e-10 1.0625299529110066e-09 -1.1552099277167827e-09 10.27859878540039 0.73180091381073 0.025912316516041756 -3.479229959690855e-10 1.0625400559405307e-09 -1.155199935709561e-09 2.221669912338257 -0.733487069606781 -0.208919957280159 3.028109989318406e-13 -1.111210055177933e-13 -2.0081000393339793e-13 -70.12549591064453 34.385398864746094 -11.656499862670898 13.868599891662598 -6.848909854888916 -25.28999900817871 0.35837700963020325 16.78350067138672 -2.4293406009674072 2.998969961254261e-10 -1.9131098927260837e-09 -2.1446997511276322e-09 4.911739903690204e-10 -3.335489662248392e-09 -3.7093299543045077e-09 2.9989197236623966e-10 -1.9131098927260837e-09 -2.1446899811650155e-09 -7.730909824371338 5.474879741668701 -0.4173140823841095 2.998989945268704e-10 -1.913100122763467e-09 -2.1446997511276322e-09 -2.9055399894714355 0.9651829600334167 -0.10290199518203735 2.9989000172037095e-10 -1.913100122763467e-09 -2.1446997511276322e-09 -10.27859878540039 0.73180091381073 -0.025912316516041756 2.9989996597201696e-10 -1.913100122763467e-09 -2.1447099651794588e-09 -2.221669912338257 -0.733487069606781 0.208919957280159 -2.0321699480147914e-16 0.0 -3.8825099822884138e-19 -58.58479690551758 -62.55641174316406 -49.81269454956055 -2.18839955329895 71.17120361328125 2.7943997383117676 0.16297601163387299 0.5024500489234924 5.986130714416504 2.0321699480147914e-16 0.0 3.8825099822884138e-19 5.88171911239624 11.593499183654785 5.968339920043945 -0.1344500184059143 32.81370544433594 -2.5274500846862793 14.373799324035645 -21.989500045776367 34.94169235229492
-18.3558 56.6963 231.25199999999998 8.477700233459473 14.695398330688477 6.865299701690674 -14.710697174072266 10.962100982666016 -9.029040336608887 6.643840312957764 -9.392990112304688 -2.2905101776123047 -7.972450256347656 22.077302932739258 -11.44890022277832 16.60219955444336 -29.695398330688477 -18.950403213500977 -0.0 0.0 -0.0 -0.0 0.0 -0.0 3.177379962870236e-13 6.44073959747346e-14 -2.9807796855796376e-13 62.14509963989258 27.74030113220215 -1.2088699340820312 -14.439599990844727 -7.314690589904785 26.44289779663086 -0.1582600176334381 11.2666015625 1.6043601036071777 3.8675500302343124e-11 1.8214899588642197e-09 -2.6269300068548773e-09 4.283449983599752e-11 3.1690599033851186e-09 -4.542600073875747e-09 3.8676298275142074e-11 1.8215000618937438e-09 -2.6269300068548773e-09 7.730909824371338 5.474879741668701 0.4173140823841095 3.866939754515464e-11 1.8215000618937438e-09 -2.6269300068548773e-09 2.9055399894714355 0.9651829600334167 0.10290199518203735 3.868350084701433e-11 1.8215000618937438e-09 -2.6269197928030508e-09 10.27859878540039 0.73180091381073 0.025912316516041756 3.8678699132432826e-11 1.8215000618937438e-09 -2.6269197928030508e-09 2.221669912338257 -0.733487069606781 -0.208919957280159 3.177969768852068e-13 6.440600006443753e-14 -2.9827599808476823e-13 -70.20220184326172 34.96039581298828 -11.344099044799805 13.89989948272705 -6.873910903930664 -25.3528995513916 0.34957101941108704 16.58220100402832 -2.3984897136688232 2.6756397097926765e-10 -1.4625798350209607e-09 -1.6390798718290966e-09 4.436499778659453e-10 -2.5489896859909322e-09 -2.83545009693853e-09 2.6756200033339894e-10 -1.4625798350209607e-09 -1.6390598878146534e-09 -7.730909824371338 5.474879741668701 -0.4173140823841095 2.675659971362876e-10 -1.4625798350209607e-09 -1.6390898638363183e-09 -2.9055399894714355 0.9651829600334167 -0.10290199518203735 2.675610011326768e-10 -1.4625798350209607e-09 -1.6390898638363183e-09 -10.27859878540039 0.73180091381073 -0.025912316516041756 2.6756499793556543e-10 -1.4625699540360415e-09 -1.6390898638363183e-09 -2.221669912338257 -0.733487069606781 0.208919957280159 -2.0321699480147914e-16 0.0 -3.8825099822884138e-19 -57.870601654052734 -62.640907287597656 -49.126197814941406 -2.1770100593566895 71.064697265625 2.76393985748291 0.13969001173973083 0.7239050269126892 5.694180488586426 2.0321699480147914e-16 0.0 3.8825099822884138e-19 6.257309913635254 10.800701141357422 5.97499942779541 -0.11282599717378616 34.358299255371094 -2.5727200508117676 14.402698516845703 -21.96539878845215 34.83969497680664
-18.420600000000004 56.6811 230.92900000000003 8.253600120544434 14.870999336242676 6.517699718475342 -14.371500015258789 11.763401985168457 -9.165968894958496 6.758210182189941 -9.25532054901123 -2.3356897830963135 -7.874399185180664 20.752099990844727 -11.223897933959961 16.34039878845215 -29.134897232055664 -18.527999877929688 -0.0 0.0 -0.0 -0.0 0.0 -0.0 2.136530020827379e-13 9.213729632766635e-14 -4.1417097616097687e-13 61.772796630859375 27.059803009033203 -0.7373386025428772 -14.237899780273438 -7.148601531982422 26.032697677612305 -0.14678697288036346 10.847399711608887 1.543220043182373 5.847790029989142e-10 1.3072899429644735e-09 -2.5588098306883467e-09 9.867878736358193e-10 2.2832500334857286e-09 -4.4297099321966016e-09 5.847800021996363e-10 1.3072999349716952e-09 -2.5588098306883467e-09 7.730909824371338 5.474879741668701 0.4173140823841095 5.847730077945812e-10 1.3072999349716952e-09 -2.5588098306883467e-09 2.9055399894714355 0.9651829600334167 0.10290199518203735 5.847879958054136e-10 1.3072999349716952e-09 -2.5588098306883467e-09 10.27859878540039 0.73180091381073 0.025912316516041756 5.847790029989142e-10 1.3072999349716952e-09 -2.55880006072573e-09 2.221669912338257 -0.733487069606781 -0.208919957280159 2.137449966370733e-13 9.213720145997625e-14 -4.1438797922579984e-13 -69.85690307617188 34.05270767211914 -11.930901527404785 13.907999992370605 -6.880370140075684 -25.368999481201172 0.3497389853000641 16.585599899291992 -2.3990299701690674 2.0526899624506711e-10 -7.818929947944753e-10 -9.268069645074206e-10 3.427879924355892e-10 -1.365740076586519e-09 -1.6041998840421456e-09 2.0526698396583498e-10 -7.818919955937531e-10 -9.267839828908109e-10 -7.730909824371338 5.474879741668701 -0.4173140823841095 2.052720077250214e-10 -7.818879432797132e-10 -9.268049661059763e-10 -2.9055399894714355 0.9651829600334167 -0.10290199518203735 2.0526498556439066e-10 -7.818879432797132e-10 -9.268059653066985e-10 -10.27859878540039 0.73180091381073 -0.025912316516041756 2.0526899624506711e-10 -7.818860003894201e-10 -9.268150136243491e-10 -2.221669912338257 -0.733487069606781 0.208919957280159 -2.0321699480147914e-16 0.0 -3.8825099822884138e-19 -56.933895111083984 -62.65390396118164 -48.17689514160156 -2.1428000926971436 70.78839874267578 2.698050022125244 0.11977199465036392 0.9993700981140137 5.363630294799805 2.0321699480147914e-16 0.0 3.8825099822884138e-19 6.704949855804443 9.81825065612793 5.751989364624023 -0.0834122970700264 36.47749710083008 -2.642319917678833 14.388501167297363 -21.899198532104492 34.63759994506836
